<mxfile host="Electron" modified="2023-08-18T18:53:47.329Z" agent="Mozilla/5.0 (X11; Linux x86_64) AppleWebKit/537.36 (KHTML, like Gecko) draw.io/21.6.8 Chrome/114.0.5735.289 Electron/25.5.0 Safari/537.36" etag="BZ9M7gUk_9rnzOUwohwQ" version="21.6.8" type="device">
  <diagram name="Page-1" id="OAuRkubQZ9bmaXEIOoCf">
    <mxGraphModel dx="1364" dy="843" grid="1" gridSize="10" guides="1" tooltips="1" connect="1" arrows="1" fold="1" page="1" pageScale="1" pageWidth="850" pageHeight="1100" math="0" shadow="0">
      <root>
        <mxCell id="0" />
        <mxCell id="1" parent="0" />
        <mxCell id="jbSRzDVI6m3TjnWftjvo-7" style="edgeStyle=orthogonalEdgeStyle;rounded=0;orthogonalLoop=1;jettySize=auto;html=1;exitX=0.5;exitY=1;exitDx=0;exitDy=0;entryX=0.5;entryY=0;entryDx=0;entryDy=0;" edge="1" parent="1" source="jbSRzDVI6m3TjnWftjvo-1" target="jbSRzDVI6m3TjnWftjvo-5">
          <mxGeometry relative="1" as="geometry" />
        </mxCell>
        <mxCell id="jbSRzDVI6m3TjnWftjvo-1" value="начало&lt;br&gt;&lt;br&gt;в ячейке cell хранится optional&amp;lt;CellInterface::Value&amp;gt; cashed_value_&lt;br&gt;&lt;br&gt;когда в ячейку добавляестя формула, которая не несет циклов, операндам ячейкам из этой формулы сообщается, что this зависит от них;&lt;br&gt;делается это путем добавления this в множество unordered_ser&amp;lt;CellInterface*&amp;gt; parent_; каждого операнда-ячейки&lt;br&gt;&lt;br&gt;таким образом, каждая ячейка знает, куда сходить, чтобы инвалидировать кэш -- во все элементы в parent_" style="rounded=1;whiteSpace=wrap;html=1;" vertex="1" parent="1">
          <mxGeometry x="200" y="80" width="440" height="210" as="geometry" />
        </mxCell>
        <mxCell id="jbSRzDVI6m3TjnWftjvo-2" value="Инвалидация кэша" style="text;html=1;align=center;verticalAlign=middle;resizable=0;points=[];autosize=1;strokeColor=none;fillColor=none;fontSize=17;" vertex="1" parent="1">
          <mxGeometry x="340" y="18" width="170" height="30" as="geometry" />
        </mxCell>
        <mxCell id="jbSRzDVI6m3TjnWftjvo-4" value="&lt;h1 style=&quot;&quot;&gt;Граф зависимостей&lt;/h1&gt;&lt;p&gt;A1 = B1 + B2; A2 = C1 + C2;&lt;/p&gt;&lt;p&gt;AA1 = A1 + A2;&lt;/p&gt;&lt;p&gt;&lt;br&gt;&lt;/p&gt;&lt;p&gt;&lt;br&gt;&lt;/p&gt;&lt;p&gt;&amp;nbsp; &amp;nbsp; &amp;nbsp; &amp;nbsp; &amp;nbsp; &amp;nbsp; &amp;nbsp; &amp;nbsp; &amp;nbsp; &amp;nbsp; &amp;nbsp; X1&lt;/p&gt;&lt;p&gt;&amp;nbsp; &amp;nbsp; &amp;nbsp; &amp;nbsp; &amp;nbsp; &amp;nbsp; &amp;nbsp; &amp;nbsp; &amp;nbsp; &amp;nbsp; &amp;nbsp; /&lt;/p&gt;&lt;p&gt;&amp;nbsp; &amp;nbsp; &amp;nbsp; &amp;nbsp; &amp;nbsp; &amp;nbsp; &amp;nbsp; &amp;nbsp; &amp;nbsp;CA2&lt;/p&gt;&lt;p&gt;&amp;nbsp; &amp;nbsp; &amp;nbsp; &amp;nbsp; &amp;nbsp; &amp;nbsp; &amp;nbsp; &amp;nbsp; &amp;nbsp;/&amp;nbsp; &amp;nbsp; &amp;nbsp; \&lt;/p&gt;&lt;p&gt;&amp;nbsp; &amp;nbsp; &amp;nbsp; &amp;nbsp; &amp;nbsp; &amp;nbsp; &amp;nbsp;В1&amp;nbsp; &amp;nbsp; &amp;nbsp; &amp;nbsp;X2&lt;/p&gt;&lt;p&gt;&amp;nbsp; &amp;nbsp; &amp;nbsp; &amp;nbsp; &amp;nbsp; &amp;nbsp; /&lt;/p&gt;&lt;p&gt;&amp;nbsp; &amp;nbsp; &amp;nbsp; &amp;nbsp; А1&amp;nbsp; &amp;nbsp; &amp;nbsp; &amp;nbsp; &amp;nbsp; &amp;nbsp; &amp;nbsp; &amp;nbsp; &amp;nbsp; &amp;nbsp; &amp;nbsp; &amp;nbsp; &amp;nbsp; AA1&lt;/p&gt;&lt;p&gt;&amp;nbsp; &amp;nbsp; &amp;nbsp; /&amp;nbsp; &amp;nbsp; &amp;nbsp;\&amp;nbsp; &amp;nbsp; &amp;nbsp; &amp;nbsp; &amp;nbsp; &amp;nbsp; &amp;nbsp; &amp;nbsp; &amp;nbsp; &amp;nbsp; &amp;nbsp; &amp;nbsp; &amp;nbsp; /&lt;/p&gt;&lt;p&gt;АА1&amp;nbsp; &amp;nbsp; &amp;nbsp; В2&amp;nbsp; &amp;nbsp; &amp;nbsp; &amp;nbsp; &amp;nbsp; &amp;nbsp; &amp;nbsp; &amp;nbsp; &amp;nbsp; &amp;nbsp; K1&lt;/p&gt;&lt;p&gt;&amp;nbsp; &amp;nbsp; &amp;nbsp; \&amp;nbsp; &amp;nbsp; &amp;nbsp; &amp;nbsp; &amp;nbsp; &amp;nbsp; &amp;nbsp; &amp;nbsp; &amp;nbsp; &amp;nbsp; &amp;nbsp; &amp;nbsp; &amp;nbsp; &amp;nbsp; &amp;nbsp; &amp;nbsp; &amp;nbsp;\&lt;/p&gt;&lt;p&gt;&amp;nbsp; &amp;nbsp; &amp;nbsp; &amp;nbsp; \&amp;nbsp; &amp;nbsp; &amp;nbsp; &amp;nbsp; С1&amp;nbsp; &amp;nbsp; &amp;nbsp; &amp;nbsp; &amp;nbsp; &amp;nbsp; &amp;nbsp; &amp;nbsp; &amp;nbsp; &amp;nbsp;L1&lt;/p&gt;&lt;p&gt;&amp;nbsp; &amp;nbsp; &amp;nbsp; &amp;nbsp; &amp;nbsp; \&amp;nbsp; &amp;nbsp; &amp;nbsp;/&amp;nbsp; &amp;nbsp; &amp;nbsp; &amp;nbsp; &amp;nbsp; &amp;nbsp; &amp;nbsp; &amp;nbsp; &amp;nbsp; &amp;nbsp; &amp;nbsp; &amp;nbsp; &amp;nbsp; &amp;nbsp;&lt;/p&gt;&lt;p&gt;&amp;nbsp; &amp;nbsp; &amp;nbsp; &amp;nbsp; &amp;nbsp; &amp;nbsp; А2&lt;/p&gt;&lt;p&gt;&amp;nbsp; &amp;nbsp; &amp;nbsp; &amp;nbsp; &amp;nbsp; &amp;nbsp; &amp;nbsp; &amp;nbsp;\&lt;/p&gt;&lt;p&gt;&amp;nbsp; &amp;nbsp; &amp;nbsp; &amp;nbsp; &amp;nbsp; &amp;nbsp; &amp;nbsp; &amp;nbsp; С2&lt;/p&gt;&lt;p&gt;A1 = K1;&lt;/p&gt;" style="text;html=1;strokeColor=none;fillColor=none;spacing=5;spacingTop=-20;whiteSpace=wrap;overflow=hidden;rounded=0;align=left;fontStyle=0" vertex="1" parent="1">
          <mxGeometry x="40" y="1110" width="410" height="570" as="geometry" />
        </mxCell>
        <mxCell id="jbSRzDVI6m3TjnWftjvo-22" value="" style="edgeStyle=orthogonalEdgeStyle;rounded=0;orthogonalLoop=1;jettySize=auto;html=1;" edge="1" parent="1" source="jbSRzDVI6m3TjnWftjvo-5" target="jbSRzDVI6m3TjnWftjvo-21">
          <mxGeometry relative="1" as="geometry" />
        </mxCell>
        <mxCell id="jbSRzDVI6m3TjnWftjvo-5" value="запуск метода&lt;br&gt;this-&amp;gt;InvalidateCache()" style="rounded=0;whiteSpace=wrap;html=1;" vertex="1" parent="1">
          <mxGeometry x="323.97" y="330" width="191.03" height="50" as="geometry" />
        </mxCell>
        <mxCell id="jbSRzDVI6m3TjnWftjvo-12" value="" style="edgeStyle=orthogonalEdgeStyle;rounded=0;orthogonalLoop=1;jettySize=auto;html=1;" edge="1" parent="1" source="jbSRzDVI6m3TjnWftjvo-8" target="jbSRzDVI6m3TjnWftjvo-11">
          <mxGeometry relative="1" as="geometry" />
        </mxCell>
        <mxCell id="jbSRzDVI6m3TjnWftjvo-8" value="взять указатель cell на ячейку из parent_" style="whiteSpace=wrap;html=1;rounded=0;" vertex="1" parent="1">
          <mxGeometry x="360.00000000000006" y="710" width="120" height="60" as="geometry" />
        </mxCell>
        <mxCell id="jbSRzDVI6m3TjnWftjvo-13" style="edgeStyle=orthogonalEdgeStyle;rounded=0;orthogonalLoop=1;jettySize=auto;html=1;exitX=0;exitY=0.5;exitDx=0;exitDy=0;entryX=0;entryY=0.5;entryDx=0;entryDy=0;" edge="1" parent="1" source="jbSRzDVI6m3TjnWftjvo-11" target="jbSRzDVI6m3TjnWftjvo-8">
          <mxGeometry relative="1" as="geometry" />
        </mxCell>
        <mxCell id="jbSRzDVI6m3TjnWftjvo-14" value="да" style="edgeLabel;html=1;align=center;verticalAlign=middle;resizable=0;points=[];fontSize=17;" vertex="1" connectable="0" parent="jbSRzDVI6m3TjnWftjvo-13">
          <mxGeometry x="0.0609" y="-1" relative="1" as="geometry">
            <mxPoint y="27" as="offset" />
          </mxGeometry>
        </mxCell>
        <mxCell id="jbSRzDVI6m3TjnWftjvo-19" value="" style="edgeStyle=orthogonalEdgeStyle;rounded=0;orthogonalLoop=1;jettySize=auto;html=1;entryX=0;entryY=0.5;entryDx=0;entryDy=0;exitX=0.5;exitY=1;exitDx=0;exitDy=0;" edge="1" parent="1" source="jbSRzDVI6m3TjnWftjvo-11" target="jbSRzDVI6m3TjnWftjvo-5">
          <mxGeometry relative="1" as="geometry">
            <mxPoint x="310" y="460" as="targetPoint" />
            <Array as="points">
              <mxPoint x="420" y="960" />
              <mxPoint x="190" y="960" />
              <mxPoint x="190" y="355" />
            </Array>
          </mxGeometry>
        </mxCell>
        <mxCell id="jbSRzDVI6m3TjnWftjvo-20" value="нет" style="edgeLabel;html=1;align=center;verticalAlign=middle;resizable=0;points=[];fontSize=17;" vertex="1" connectable="0" parent="jbSRzDVI6m3TjnWftjvo-19">
          <mxGeometry x="-0.3043" y="1" relative="1" as="geometry">
            <mxPoint y="-300" as="offset" />
          </mxGeometry>
        </mxCell>
        <mxCell id="jbSRzDVI6m3TjnWftjvo-11" value="ячейка инвалидирована?" style="rhombus;whiteSpace=wrap;html=1;rounded=0;" vertex="1" parent="1">
          <mxGeometry x="325.00000000000006" y="820" width="190" height="130" as="geometry" />
        </mxCell>
        <mxCell id="jbSRzDVI6m3TjnWftjvo-15" value="выход" style="rounded=1;whiteSpace=wrap;html=1;" vertex="1" parent="1">
          <mxGeometry x="550" y="555" width="120" height="60" as="geometry" />
        </mxCell>
        <mxCell id="jbSRzDVI6m3TjnWftjvo-24" value="" style="edgeStyle=orthogonalEdgeStyle;rounded=0;orthogonalLoop=1;jettySize=auto;html=1;" edge="1" parent="1" source="jbSRzDVI6m3TjnWftjvo-21" target="jbSRzDVI6m3TjnWftjvo-23">
          <mxGeometry relative="1" as="geometry" />
        </mxCell>
        <mxCell id="jbSRzDVI6m3TjnWftjvo-21" value="cashed_value_.reset()" style="whiteSpace=wrap;html=1;rounded=0;" vertex="1" parent="1">
          <mxGeometry x="344.49" y="430" width="150" height="60" as="geometry" />
        </mxCell>
        <mxCell id="jbSRzDVI6m3TjnWftjvo-25" style="edgeStyle=orthogonalEdgeStyle;rounded=0;orthogonalLoop=1;jettySize=auto;html=1;exitX=1;exitY=0.5;exitDx=0;exitDy=0;entryX=0;entryY=0.5;entryDx=0;entryDy=0;" edge="1" parent="1" source="jbSRzDVI6m3TjnWftjvo-23" target="jbSRzDVI6m3TjnWftjvo-15">
          <mxGeometry relative="1" as="geometry" />
        </mxCell>
        <mxCell id="jbSRzDVI6m3TjnWftjvo-26" value="да" style="edgeLabel;html=1;align=center;verticalAlign=middle;resizable=0;points=[];fontSize=17;" vertex="1" connectable="0" parent="jbSRzDVI6m3TjnWftjvo-25">
          <mxGeometry x="-0.2333" relative="1" as="geometry">
            <mxPoint as="offset" />
          </mxGeometry>
        </mxCell>
        <mxCell id="jbSRzDVI6m3TjnWftjvo-27" value="" style="edgeStyle=orthogonalEdgeStyle;rounded=0;orthogonalLoop=1;jettySize=auto;html=1;" edge="1" parent="1" source="jbSRzDVI6m3TjnWftjvo-23" target="jbSRzDVI6m3TjnWftjvo-8">
          <mxGeometry relative="1" as="geometry" />
        </mxCell>
        <mxCell id="jbSRzDVI6m3TjnWftjvo-28" value="нет" style="edgeLabel;html=1;align=center;verticalAlign=middle;resizable=0;points=[];fontSize=17;" vertex="1" connectable="0" parent="jbSRzDVI6m3TjnWftjvo-27">
          <mxGeometry x="-0.3114" y="-4" relative="1" as="geometry">
            <mxPoint x="3" y="6" as="offset" />
          </mxGeometry>
        </mxCell>
        <mxCell id="jbSRzDVI6m3TjnWftjvo-23" value="parent_ пуст?" style="rhombus;whiteSpace=wrap;html=1;rounded=0;" vertex="1" parent="1">
          <mxGeometry x="350" y="530" width="140" height="110" as="geometry" />
        </mxCell>
      </root>
    </mxGraphModel>
  </diagram>
</mxfile>
